<svg xmlns="http://www.w3.org/2000/svg" xmlns:xlink="http://www.w3.org/1999/xlink" width="213.996" height="54.087" viewBox="0 0 213.996 54.087">
  <defs>
    <clipPath id="clip-path">
      <rect id="長方形_1226" data-name="長方形 1226" width="213.996" height="54.087" fill="#fff"/>
    </clipPath>
  </defs>
  <g id="logo-white" transform="translate(0 0)">
    <g id="グループ_1504" data-name="グループ 1504" transform="translate(0 0)" clip-path="url(#clip-path)">
      <path id="パス_220" data-name="パス 220" d="M27.36,74.727H41.553c.482-.289.957-.588,1.421-.9H27.881c-.156.3-.332.6-.521.9" transform="translate(-9.746 -26.298)" fill="#fff"/>
      <path id="パス_221" data-name="パス 221" d="M16.95,83.549a41.674,41.674,0,0,0,7.966-.841H19.081a4.872,4.872,0,0,1-2.131.841" transform="translate(-6.038 -29.463)" fill="#fff"/>
      <path id="パス_222" data-name="パス 222" d="M25.2,77.688H37.109q.949-.424,1.875-.9H25.909q-.336.46-.707.9" transform="translate(-8.978 -27.353)" fill="#fff"/>
      <path id="パス_223" data-name="パス 223" d="M22.318,80.649H30.9c.906-.268,1.815-.569,2.719-.9H23.27c-.311.321-.63.623-.952.9" transform="translate(-7.95 -28.408)" fill="#fff"/>
      <path id="パス_224" data-name="パス 224" d="M44.615,15.314c-.022-.066-.04-.132-.062-.2h0c-.123-.339-.255-.673-.393-1h.021c-.123-.3-.252-.605-.39-.9h-.033q-.239-.509-.5-1h.033c-.164-.305-.335-.607-.516-.9h-.024a22.961,22.961,0,1,0-23.5,34.314h-.353a6.672,6.672,0,0,1-.288.9H34.619q.568-.436,1.109-.9H26.685a22.789,22.789,0,0,0,3.921-1h6.223c.3-.294.6-.593.888-.9H32.8c.644-.305,1.27-.641,1.879-1h3.909q.365-.442.715-.9H36.076c.457-.319.9-.653,1.336-1h2.619q.31-.444.605-.9H38.463c.353-.323.692-.659,1.024-1h1.77q.265-.446.516-.9H40.312q.426-.491.823-1H42.3c.151-.3.3-.6.44-.9H41.8q.345-.492.664-1h.729c.128-.3.254-.6.373-.9H43q.277-.494.531-1h.413c.107-.3.207-.6.305-.9H43.95q.22-.5.417-1h.184q.13-.45.247-.9h-.1q.169-.5.316-1h.029c.03-.133.057-.267.085-.4a22.983,22.983,0,0,0-.512-13.649M20.044,45.559c-.381,0-.758-.018-1.133-.044a16.316,16.316,0,0,0,0-32.554c.375-.026.752-.043,1.133-.043a16.32,16.32,0,1,1,0,32.641" transform="translate(0 0)" fill="#fff"/>
      <path id="パス_225" data-name="パス 225" d="M91.2,12.621h4.423V34.8a6.5,6.5,0,0,0,6.856,6.79,7.008,7.008,0,0,0,5.152-1.858,6.767,6.767,0,0,0,1.88-5.042V12.621h4.423V35.156a9.775,9.775,0,0,1-3.063,7.663q-3.063,2.754-8.348,2.753-5.44,0-8.381-2.7T91.2,35.134Z" transform="translate(-32.487 -4.496)" fill="#fff"/>
      <path id="パス_226" data-name="パス 226" d="M157.758,45.462,141.017,21.777V45.02h-4.2v-32.4h1.769l16.3,22.4v-22.4h4.2V45.462Z" transform="translate(-48.737 -4.496)" fill="#fff"/>
      <rect id="長方形_1225" data-name="長方形 1225" width="4.423" height="32.398" transform="translate(117.756 8.125)" fill="#fff"/>
      <path id="パス_227" data-name="パス 227" d="M206.8,14.99q0,5.86-5.861,9.554l-1.481-1.969,1.658-1.415a3.222,3.222,0,0,0,1.217-2.543,3.385,3.385,0,0,0-1.084-2.1,3.431,3.431,0,0,1-1.083-2.189q0-3.25,3.207-3.251,3.428,0,3.428,3.915" transform="translate(-71.053 -3.945)" fill="#fff"/>
      <path id="パス_228" data-name="パス 228" d="M214.258,43.232l1.615-4.069a11.02,11.02,0,0,0,3.085,1.514,10.692,10.692,0,0,0,3.306.609,5.974,5.974,0,0,0,4.158-1.416,4.636,4.636,0,0,0,1.57-3.6,5.647,5.647,0,0,0-.873-3.042q-.874-1.4-4.39-3.063l-2.609-1.216a10.412,10.412,0,0,1-4.633-3.671,9.508,9.508,0,0,1-1.317-5.108,7.867,7.867,0,0,1,2.567-6.015,9.283,9.283,0,0,1,6.589-2.388q5.374,0,7.475,1.748l-1.306,3.848a10.158,10.158,0,0,0-2.7-1.239,10.808,10.808,0,0,0-3.362-.6,4.821,4.821,0,0,0-3.55,1.282,4.444,4.444,0,0,0-1.294,3.3,5.375,5.375,0,0,0,.465,2.255,4.715,4.715,0,0,0,1.294,1.7,19.3,19.3,0,0,0,3.395,1.924l2.654,1.261a10.532,10.532,0,0,1,4.655,3.749,10.427,10.427,0,0,1,1.339,5.54,7.906,7.906,0,0,1-2.931,6.192,11.542,11.542,0,0,1-7.84,2.543,12.97,12.97,0,0,1-7.364-2.034" transform="translate(-76.293 -4.19)" fill="#fff"/>
      <path id="パス_229" data-name="パス 229" d="M248.007,28.226a19.131,19.131,0,0,1,3.528-11.765,11.257,11.257,0,0,1,9.52-4.733q6.745,0,10.338,4.357t3.594,12.141q0,7.984-3.6,12.506t-10.328,4.522a11.178,11.178,0,0,1-9.587-4.777q-3.461-4.776-3.461-12.251m4.644,0a18.1,18.1,0,0,0,2.2,9.31,6.86,6.86,0,0,0,6.2,3.738,7.884,7.884,0,0,0,6.911-3.429q2.377-3.426,2.377-9.619,0-12.518-9.288-12.517a6.969,6.969,0,0,0-6.259,3.36q-2.146,3.362-2.145,9.156" transform="translate(-88.347 -4.178)" fill="#fff"/>
      <path id="パス_230" data-name="パス 230" d="M318.761,45.462,302.019,21.777V45.02h-4.2v-32.4h1.77l16.3,22.4v-22.4h4.2V45.462Z" transform="translate(-106.091 -4.496)" fill="#fff"/>
    </g>
  </g>
</svg>
