<svg xmlns="http://www.w3.org/2000/svg" xmlns:xlink="http://www.w3.org/1999/xlink" width="236" height="59.648" viewBox="0 0 236 59.648">
  <defs>
    <clipPath id="clip-path">
      <rect id="長方形_1226" data-name="長方形 1226" width="236" height="59.648" fill="none"/>
    </clipPath>
  </defs>
  <g id="logo" transform="translate(0 0)">
    <g id="グループ_1504" data-name="グループ 1504" transform="translate(0 0)" clip-path="url(#clip-path)">
      <path id="パス_220" data-name="パス 220" d="M27.36,74.82H43.012c.532-.319,1.055-.649,1.568-1H27.935c-.173.329-.366.662-.575,1" transform="translate(-7.935 -21.412)" fill="#7297a9"/>
      <path id="パス_221" data-name="パス 221" d="M16.95,83.636a45.96,45.96,0,0,0,8.785-.928H19.3a5.373,5.373,0,0,1-2.35.928" transform="translate(-4.916 -23.988)" fill="#7297a9"/>
      <path id="パス_222" data-name="パス 222" d="M25.2,77.781H38.334q1.047-.468,2.067-1H25.982q-.371.507-.78,1" transform="translate(-7.309 -22.27)" fill="#7297a9"/>
      <path id="パス_223" data-name="パス 223" d="M22.318,80.742h9.467c1-.3,2-.628,3-1H23.368c-.343.354-.7.687-1.05,1" transform="translate(-6.473 -23.129)" fill="#7297a9"/>
      <path id="パス_224" data-name="パス 224" d="M49.2,16.889c-.024-.072-.044-.146-.069-.217h0c-.136-.373-.281-.742-.433-1.107h.023c-.136-.335-.278-.667-.43-1h-.037q-.264-.561-.554-1.106h.037c-.18-.337-.369-.669-.569-1h-.027A25.322,25.322,0,1,0,21.217,50.309h-.39a7.358,7.358,0,0,1-.317,1H38.179q.626-.481,1.223-1H29.429A25.133,25.133,0,0,0,33.753,49.2h6.863c.334-.324.663-.654.98-1H36.172c.71-.337,1.4-.707,2.072-1.106h4.311q.4-.488.788-1H39.786c.5-.351,1-.72,1.473-1.107h2.888q.342-.49.667-1h-2.4c.389-.356.763-.727,1.129-1.107H45.5q.292-.492.569-1H44.457q.47-.541.907-1.107h1.287c.166-.329.329-.661.485-1H46.1q.38-.543.732-1.106h.8c.141-.33.28-.662.412-1h-.627q.306-.545.586-1.106h.455c.118-.33.229-.663.337-1h-.324q.243-.546.46-1.107h.2c.1-.331.186-.662.273-1h-.113q.186-.548.349-1.107h.032c.033-.147.062-.295.094-.442A25.346,25.346,0,0,0,49.2,16.889M22.1,50.244c-.42,0-.836-.02-1.25-.048a17.993,17.993,0,0,0,0-35.9c.413-.028.829-.048,1.25-.048a18,18,0,1,1,0,36" transform="translate(0 0)" fill="#7297a9"/>
      <path id="パス_225" data-name="パス 225" d="M91.2,12.621h4.878V37.083a7.172,7.172,0,0,0,7.56,7.488,7.729,7.729,0,0,0,5.682-2.049,7.463,7.463,0,0,0,2.073-5.56V12.621h4.878V37.473q0,5.414-3.378,8.451t-9.207,3.037q-6,0-9.243-2.975T91.2,37.449Z" transform="translate(-26.45 -3.661)" fill="#fff"/>
      <path id="パス_226" data-name="パス 226" d="M159.912,48.839l-18.463-26.12V48.351h-4.634V12.621h1.951l17.975,24.706V12.621h4.634V48.839Z" transform="translate(-39.681 -3.661)" fill="#fff"/>
      <rect id="長方形_1225" data-name="長方形 1225" width="4.877" height="35.73" transform="translate(129.864 8.96)" fill="#fff"/>
      <path id="パス_227" data-name="パス 227" d="M207.557,15.392q0,6.462-6.464,10.536l-1.634-2.171,1.829-1.561a3.554,3.554,0,0,0,1.342-2.8,3.733,3.733,0,0,0-1.2-2.317,3.784,3.784,0,0,1-1.195-2.415q0-3.585,3.536-3.585,3.781,0,3.781,4.317" transform="translate(-57.85 -3.212)" fill="#fff"/>
      <path id="パス_228" data-name="パス 228" d="M214.267,46.467l1.781-4.487a12.153,12.153,0,0,0,3.4,1.67,11.791,11.791,0,0,0,3.646.672,6.588,6.588,0,0,0,4.585-1.562,5.113,5.113,0,0,0,1.731-3.974,6.229,6.229,0,0,0-.963-3.355q-.964-1.548-4.841-3.378l-2.878-1.341a11.483,11.483,0,0,1-5.11-4.049,10.486,10.486,0,0,1-1.452-5.634A8.676,8.676,0,0,1,217,14.4a10.238,10.238,0,0,1,7.267-2.634q5.926,0,8.244,1.928l-1.44,4.243a11.2,11.2,0,0,0-2.975-1.366,11.919,11.919,0,0,0-3.707-.658,5.317,5.317,0,0,0-3.915,1.414,4.9,4.9,0,0,0-1.427,3.635,5.927,5.927,0,0,0,.513,2.487,5.2,5.2,0,0,0,1.427,1.878,21.288,21.288,0,0,0,3.744,2.122l2.926,1.39a11.615,11.615,0,0,1,5.134,4.134,11.5,11.5,0,0,1,1.477,6.109,8.719,8.719,0,0,1-3.232,6.828,12.729,12.729,0,0,1-8.646,2.8,14.3,14.3,0,0,1-8.121-2.243" transform="translate(-62.116 -3.412)" fill="#fff"/>
      <path id="パス_229" data-name="パス 229" d="M248.007,29.922A21.1,21.1,0,0,1,251.9,16.948a12.415,12.415,0,0,1,10.5-5.22q7.439,0,11.4,4.805t3.963,13.389q0,8.805-3.974,13.792T262.4,48.7a12.328,12.328,0,0,1-10.573-5.268q-3.817-5.267-3.817-13.511m5.122,0a19.958,19.958,0,0,0,2.427,10.268,7.565,7.565,0,0,0,6.841,4.122,8.7,8.7,0,0,0,7.621-3.781q2.622-3.778,2.621-10.608,0-13.8-10.243-13.8a7.686,7.686,0,0,0-6.9,3.706q-2.366,3.708-2.366,10.1" transform="translate(-71.93 -3.402)" fill="#fff"/>
      <path id="パス_230" data-name="パス 230" d="M320.914,48.839l-18.463-26.12V48.351h-4.634V12.621h1.952l17.974,24.706V12.621h4.634V48.839Z" transform="translate(-86.377 -3.661)" fill="#fff"/>
    </g>
  </g>
</svg>
